<?xml version="1.0" encoding="utf-8" standalone="no"?>
<!DOCTYPE svg PUBLIC "-//W3C//DTD SVG 1.1//EN"
  "http://www.w3.org/Graphics/SVG/1.1/DTD/svg11.dtd">
<svg xmlns:xlink="http://www.w3.org/1999/xlink" width="432pt" height="288pt" viewBox="0 0 432 288" xmlns="http://www.w3.org/2000/svg" version="1.1">
 <metadata>
  <rdf:RDF xmlns:dc="http://purl.org/dc/elements/1.1/" xmlns:cc="http://creativecommons.org/ns#" xmlns:rdf="http://www.w3.org/1999/02/22-rdf-syntax-ns#">
   <cc:Work>
    <dc:type rdf:resource="http://purl.org/dc/dcmitype/StillImage"/>
    <dc:date>2022-04-27T18:12:51.201190</dc:date>
    <dc:format>image/svg+xml</dc:format>
    <dc:creator>
     <cc:Agent>
      <dc:title>Matplotlib v3.5.1, https://matplotlib.org/</dc:title>
     </cc:Agent>
    </dc:creator>
   </cc:Work>
  </rdf:RDF>
 </metadata>
 <defs>
  <style type="text/css">*{stroke-linejoin: round; stroke-linecap: butt}</style>
 </defs>
 <g id="figure_1">
  <g id="patch_1">
   <path d="M 0 288 
L 432 288 
L 432 0 
L 0 0 
L 0 288 
z
" style="fill: none"/>
  </g>
  <g id="axes_1">
   <g id="patch_2">
    <path d="M 54 252 
L 388.8 252 
L 388.8 34.56 
L 54 34.56 
z
" style="fill: #ffffff"/>
   </g>
   <g id="matplotlib.axis_1">
    <g id="xtick_1">
     <g id="line2d_1">
      <defs>
       <path id="m80b843c50b" d="M 0 0 
L 0 3.5 
" style="stroke: #000000; stroke-width: 0.8"/>
      </defs>
      <g>
       <use xlink:href="#m80b843c50b" x="69.218182" y="252" style="stroke: #000000; stroke-width: 0.8"/>
      </g>
     </g>
     <g id="text_1">
      <!-- 0 -->
      <g transform="translate(66.036932 266.598437)scale(0.1 -0.1)">
       <defs>
        <path id="DejaVuSans-30" d="M 2034 4250 
Q 1547 4250 1301 3770 
Q 1056 3291 1056 2328 
Q 1056 1369 1301 889 
Q 1547 409 2034 409 
Q 2525 409 2770 889 
Q 3016 1369 3016 2328 
Q 3016 3291 2770 3770 
Q 2525 4250 2034 4250 
z
M 2034 4750 
Q 2819 4750 3233 4129 
Q 3647 3509 3647 2328 
Q 3647 1150 3233 529 
Q 2819 -91 2034 -91 
Q 1250 -91 836 529 
Q 422 1150 422 2328 
Q 422 3509 836 4129 
Q 1250 4750 2034 4750 
z
" transform="scale(0.015625)"/>
       </defs>
       <use xlink:href="#DejaVuSans-30"/>
      </g>
     </g>
    </g>
    <g id="xtick_2">
     <g id="line2d_2">
      <g>
       <use xlink:href="#m80b843c50b" x="130.090909" y="252" style="stroke: #000000; stroke-width: 0.8"/>
      </g>
     </g>
     <g id="text_2">
      <!-- 20 -->
      <g transform="translate(123.728409 266.598437)scale(0.1 -0.1)">
       <defs>
        <path id="DejaVuSans-32" d="M 1228 531 
L 3431 531 
L 3431 0 
L 469 0 
L 469 531 
Q 828 903 1448 1529 
Q 2069 2156 2228 2338 
Q 2531 2678 2651 2914 
Q 2772 3150 2772 3378 
Q 2772 3750 2511 3984 
Q 2250 4219 1831 4219 
Q 1534 4219 1204 4116 
Q 875 4013 500 3803 
L 500 4441 
Q 881 4594 1212 4672 
Q 1544 4750 1819 4750 
Q 2544 4750 2975 4387 
Q 3406 4025 3406 3419 
Q 3406 3131 3298 2873 
Q 3191 2616 2906 2266 
Q 2828 2175 2409 1742 
Q 1991 1309 1228 531 
z
" transform="scale(0.015625)"/>
       </defs>
       <use xlink:href="#DejaVuSans-32"/>
       <use xlink:href="#DejaVuSans-30" x="63.623047"/>
      </g>
     </g>
    </g>
    <g id="xtick_3">
     <g id="line2d_3">
      <g>
       <use xlink:href="#m80b843c50b" x="190.963636" y="252" style="stroke: #000000; stroke-width: 0.8"/>
      </g>
     </g>
     <g id="text_3">
      <!-- 40 -->
      <g transform="translate(184.601136 266.598437)scale(0.1 -0.1)">
       <defs>
        <path id="DejaVuSans-34" d="M 2419 4116 
L 825 1625 
L 2419 1625 
L 2419 4116 
z
M 2253 4666 
L 3047 4666 
L 3047 1625 
L 3713 1625 
L 3713 1100 
L 3047 1100 
L 3047 0 
L 2419 0 
L 2419 1100 
L 313 1100 
L 313 1709 
L 2253 4666 
z
" transform="scale(0.015625)"/>
       </defs>
       <use xlink:href="#DejaVuSans-34"/>
       <use xlink:href="#DejaVuSans-30" x="63.623047"/>
      </g>
     </g>
    </g>
    <g id="xtick_4">
     <g id="line2d_4">
      <g>
       <use xlink:href="#m80b843c50b" x="251.836364" y="252" style="stroke: #000000; stroke-width: 0.8"/>
      </g>
     </g>
     <g id="text_4">
      <!-- 60 -->
      <g transform="translate(245.473864 266.598437)scale(0.1 -0.1)">
       <defs>
        <path id="DejaVuSans-36" d="M 2113 2584 
Q 1688 2584 1439 2293 
Q 1191 2003 1191 1497 
Q 1191 994 1439 701 
Q 1688 409 2113 409 
Q 2538 409 2786 701 
Q 3034 994 3034 1497 
Q 3034 2003 2786 2293 
Q 2538 2584 2113 2584 
z
M 3366 4563 
L 3366 3988 
Q 3128 4100 2886 4159 
Q 2644 4219 2406 4219 
Q 1781 4219 1451 3797 
Q 1122 3375 1075 2522 
Q 1259 2794 1537 2939 
Q 1816 3084 2150 3084 
Q 2853 3084 3261 2657 
Q 3669 2231 3669 1497 
Q 3669 778 3244 343 
Q 2819 -91 2113 -91 
Q 1303 -91 875 529 
Q 447 1150 447 2328 
Q 447 3434 972 4092 
Q 1497 4750 2381 4750 
Q 2619 4750 2861 4703 
Q 3103 4656 3366 4563 
z
" transform="scale(0.015625)"/>
       </defs>
       <use xlink:href="#DejaVuSans-36"/>
       <use xlink:href="#DejaVuSans-30" x="63.623047"/>
      </g>
     </g>
    </g>
    <g id="xtick_5">
     <g id="line2d_5">
      <g>
       <use xlink:href="#m80b843c50b" x="312.709091" y="252" style="stroke: #000000; stroke-width: 0.8"/>
      </g>
     </g>
     <g id="text_5">
      <!-- 80 -->
      <g transform="translate(306.346591 266.598437)scale(0.1 -0.1)">
       <defs>
        <path id="DejaVuSans-38" d="M 2034 2216 
Q 1584 2216 1326 1975 
Q 1069 1734 1069 1313 
Q 1069 891 1326 650 
Q 1584 409 2034 409 
Q 2484 409 2743 651 
Q 3003 894 3003 1313 
Q 3003 1734 2745 1975 
Q 2488 2216 2034 2216 
z
M 1403 2484 
Q 997 2584 770 2862 
Q 544 3141 544 3541 
Q 544 4100 942 4425 
Q 1341 4750 2034 4750 
Q 2731 4750 3128 4425 
Q 3525 4100 3525 3541 
Q 3525 3141 3298 2862 
Q 3072 2584 2669 2484 
Q 3125 2378 3379 2068 
Q 3634 1759 3634 1313 
Q 3634 634 3220 271 
Q 2806 -91 2034 -91 
Q 1263 -91 848 271 
Q 434 634 434 1313 
Q 434 1759 690 2068 
Q 947 2378 1403 2484 
z
M 1172 3481 
Q 1172 3119 1398 2916 
Q 1625 2713 2034 2713 
Q 2441 2713 2670 2916 
Q 2900 3119 2900 3481 
Q 2900 3844 2670 4047 
Q 2441 4250 2034 4250 
Q 1625 4250 1398 4047 
Q 1172 3844 1172 3481 
z
" transform="scale(0.015625)"/>
       </defs>
       <use xlink:href="#DejaVuSans-38"/>
       <use xlink:href="#DejaVuSans-30" x="63.623047"/>
      </g>
     </g>
    </g>
    <g id="xtick_6">
     <g id="line2d_6">
      <g>
       <use xlink:href="#m80b843c50b" x="373.581818" y="252" style="stroke: #000000; stroke-width: 0.8"/>
      </g>
     </g>
     <g id="text_6">
      <!-- 100 -->
      <g transform="translate(364.038068 266.598437)scale(0.1 -0.1)">
       <defs>
        <path id="DejaVuSans-31" d="M 794 531 
L 1825 531 
L 1825 4091 
L 703 3866 
L 703 4441 
L 1819 4666 
L 2450 4666 
L 2450 531 
L 3481 531 
L 3481 0 
L 794 0 
L 794 531 
z
" transform="scale(0.015625)"/>
       </defs>
       <use xlink:href="#DejaVuSans-31"/>
       <use xlink:href="#DejaVuSans-30" x="63.623047"/>
       <use xlink:href="#DejaVuSans-30" x="127.246094"/>
      </g>
     </g>
    </g>
    <g id="text_7">
     <!-- t -->
     <g transform="translate(219.439844 280.276563)scale(0.1 -0.1)">
      <defs>
       <path id="DejaVuSans-74" d="M 1172 4494 
L 1172 3500 
L 2356 3500 
L 2356 3053 
L 1172 3053 
L 1172 1153 
Q 1172 725 1289 603 
Q 1406 481 1766 481 
L 2356 481 
L 2356 0 
L 1766 0 
Q 1100 0 847 248 
Q 594 497 594 1153 
L 594 3053 
L 172 3053 
L 172 3500 
L 594 3500 
L 594 4494 
L 1172 4494 
z
" transform="scale(0.015625)"/>
      </defs>
      <use xlink:href="#DejaVuSans-74"/>
     </g>
    </g>
   </g>
   <g id="matplotlib.axis_2">
    <g id="ytick_1">
     <g id="line2d_7">
      <defs>
       <path id="m67498b9a4a" d="M 0 0 
L -3.5 0 
" style="stroke: #000000; stroke-width: 0.8"/>
      </defs>
      <g>
       <use xlink:href="#m67498b9a4a" x="54" y="247.641608" style="stroke: #000000; stroke-width: 0.8"/>
      </g>
     </g>
     <g id="text_8">
      <!-- 0 -->
      <g transform="translate(40.6375 251.440826)scale(0.1 -0.1)">
       <use xlink:href="#DejaVuSans-30"/>
      </g>
     </g>
    </g>
    <g id="ytick_2">
     <g id="line2d_8">
      <g>
       <use xlink:href="#m67498b9a4a" x="54" y="220.015388" style="stroke: #000000; stroke-width: 0.8"/>
      </g>
     </g>
     <g id="text_9">
      <!-- 5 -->
      <g transform="translate(40.6375 223.814606)scale(0.1 -0.1)">
       <defs>
        <path id="DejaVuSans-35" d="M 691 4666 
L 3169 4666 
L 3169 4134 
L 1269 4134 
L 1269 2991 
Q 1406 3038 1543 3061 
Q 1681 3084 1819 3084 
Q 2600 3084 3056 2656 
Q 3513 2228 3513 1497 
Q 3513 744 3044 326 
Q 2575 -91 1722 -91 
Q 1428 -91 1123 -41 
Q 819 9 494 109 
L 494 744 
Q 775 591 1075 516 
Q 1375 441 1709 441 
Q 2250 441 2565 725 
Q 2881 1009 2881 1497 
Q 2881 1984 2565 2268 
Q 2250 2553 1709 2553 
Q 1456 2553 1204 2497 
Q 953 2441 691 2322 
L 691 4666 
z
" transform="scale(0.015625)"/>
       </defs>
       <use xlink:href="#DejaVuSans-35"/>
      </g>
     </g>
    </g>
    <g id="ytick_3">
     <g id="line2d_9">
      <g>
       <use xlink:href="#m67498b9a4a" x="54" y="192.389168" style="stroke: #000000; stroke-width: 0.8"/>
      </g>
     </g>
     <g id="text_10">
      <!-- 10 -->
      <g transform="translate(34.275 196.188386)scale(0.1 -0.1)">
       <use xlink:href="#DejaVuSans-31"/>
       <use xlink:href="#DejaVuSans-30" x="63.623047"/>
      </g>
     </g>
    </g>
    <g id="ytick_4">
     <g id="line2d_10">
      <g>
       <use xlink:href="#m67498b9a4a" x="54" y="164.762948" style="stroke: #000000; stroke-width: 0.8"/>
      </g>
     </g>
     <g id="text_11">
      <!-- 15 -->
      <g transform="translate(34.275 168.562166)scale(0.1 -0.1)">
       <use xlink:href="#DejaVuSans-31"/>
       <use xlink:href="#DejaVuSans-35" x="63.623047"/>
      </g>
     </g>
    </g>
    <g id="ytick_5">
     <g id="line2d_11">
      <g>
       <use xlink:href="#m67498b9a4a" x="54" y="137.136728" style="stroke: #000000; stroke-width: 0.8"/>
      </g>
     </g>
     <g id="text_12">
      <!-- 20 -->
      <g transform="translate(34.275 140.935946)scale(0.1 -0.1)">
       <use xlink:href="#DejaVuSans-32"/>
       <use xlink:href="#DejaVuSans-30" x="63.623047"/>
      </g>
     </g>
    </g>
    <g id="ytick_6">
     <g id="line2d_12">
      <g>
       <use xlink:href="#m67498b9a4a" x="54" y="109.510508" style="stroke: #000000; stroke-width: 0.8"/>
      </g>
     </g>
     <g id="text_13">
      <!-- 25 -->
      <g transform="translate(34.275 113.309726)scale(0.1 -0.1)">
       <use xlink:href="#DejaVuSans-32"/>
       <use xlink:href="#DejaVuSans-35" x="63.623047"/>
      </g>
     </g>
    </g>
    <g id="ytick_7">
     <g id="line2d_13">
      <g>
       <use xlink:href="#m67498b9a4a" x="54" y="81.884288" style="stroke: #000000; stroke-width: 0.8"/>
      </g>
     </g>
     <g id="text_14">
      <!-- 30 -->
      <g transform="translate(34.275 85.683506)scale(0.1 -0.1)">
       <defs>
        <path id="DejaVuSans-33" d="M 2597 2516 
Q 3050 2419 3304 2112 
Q 3559 1806 3559 1356 
Q 3559 666 3084 287 
Q 2609 -91 1734 -91 
Q 1441 -91 1130 -33 
Q 819 25 488 141 
L 488 750 
Q 750 597 1062 519 
Q 1375 441 1716 441 
Q 2309 441 2620 675 
Q 2931 909 2931 1356 
Q 2931 1769 2642 2001 
Q 2353 2234 1838 2234 
L 1294 2234 
L 1294 2753 
L 1863 2753 
Q 2328 2753 2575 2939 
Q 2822 3125 2822 3475 
Q 2822 3834 2567 4026 
Q 2313 4219 1838 4219 
Q 1578 4219 1281 4162 
Q 984 4106 628 3988 
L 628 4550 
Q 988 4650 1302 4700 
Q 1616 4750 1894 4750 
Q 2613 4750 3031 4423 
Q 3450 4097 3450 3541 
Q 3450 3153 3228 2886 
Q 3006 2619 2597 2516 
z
" transform="scale(0.015625)"/>
       </defs>
       <use xlink:href="#DejaVuSans-33"/>
       <use xlink:href="#DejaVuSans-30" x="63.623047"/>
      </g>
     </g>
    </g>
    <g id="ytick_8">
     <g id="line2d_14">
      <g>
       <use xlink:href="#m67498b9a4a" x="54" y="54.258067" style="stroke: #000000; stroke-width: 0.8"/>
      </g>
     </g>
     <g id="text_15">
      <!-- 35 -->
      <g transform="translate(34.275 58.057286)scale(0.1 -0.1)">
       <use xlink:href="#DejaVuSans-33"/>
       <use xlink:href="#DejaVuSans-35" x="63.623047"/>
      </g>
     </g>
    </g>
    <g id="text_16">
     <!-- R -->
     <g transform="translate(28.195312 146.754219)rotate(-90)scale(0.1 -0.1)">
      <defs>
       <path id="DejaVuSans-52" d="M 2841 2188 
Q 3044 2119 3236 1894 
Q 3428 1669 3622 1275 
L 4263 0 
L 3584 0 
L 2988 1197 
Q 2756 1666 2539 1819 
Q 2322 1972 1947 1972 
L 1259 1972 
L 1259 0 
L 628 0 
L 628 4666 
L 2053 4666 
Q 2853 4666 3247 4331 
Q 3641 3997 3641 3322 
Q 3641 2881 3436 2590 
Q 3231 2300 2841 2188 
z
M 1259 4147 
L 1259 2491 
L 2053 2491 
Q 2509 2491 2742 2702 
Q 2975 2913 2975 3322 
Q 2975 3731 2742 3939 
Q 2509 4147 2053 4147 
L 1259 4147 
z
" transform="scale(0.015625)"/>
      </defs>
      <use xlink:href="#DejaVuSans-52"/>
     </g>
    </g>
   </g>
   <g id="line2d_15">
    <path d="M 69.218182 242.116364 
L 72.292562 240.15024 
L 75.366942 238.999206 
L 78.441322 238.321689 
L 81.515702 237.921426 
L 84.590083 237.684398 
L 87.664463 237.543828 
L 90.738843 237.460387 
L 93.813223 237.41083 
L 96.887603 237.381388 
L 99.961983 237.363893 
L 103.036364 237.353496 
L 106.110744 237.347316 
L 109.185124 237.343644 
L 112.259504 237.34146 
L 115.333884 237.340163 
L 118.408264 237.339392 
L 121.482645 237.338933 
L 124.557025 237.338661 
L 127.631405 237.338499 
L 130.705785 237.338402 
L 133.780165 237.338345 
L 136.854545 237.338311 
L 139.928926 237.338291 
L 143.003306 237.338279 
L 146.077686 237.338272 
L 149.152066 237.338268 
L 152.226446 237.338265 
L 155.300826 237.338264 
L 158.375207 237.338263 
L 161.449587 237.338262 
L 164.523967 237.338262 
L 167.598347 237.338262 
L 170.672727 237.338262 
L 173.747107 237.338261 
L 176.821488 237.338261 
L 179.895868 237.338261 
L 182.970248 237.338261 
L 186.044628 237.338261 
L 189.119008 237.338261 
L 192.193388 237.338261 
L 195.267769 237.338261 
L 198.342149 237.338261 
L 201.416529 237.338261 
L 204.490909 237.338261 
L 207.565289 237.338261 
L 210.639669 237.338261 
L 213.71405 237.338261 
L 216.78843 237.338261 
L 219.86281 237.338261 
L 222.93719 237.338261 
L 226.01157 237.338261 
L 229.08595 237.338261 
L 232.160331 237.338261 
L 235.234711 237.338261 
L 238.309091 237.338261 
L 241.383471 237.338261 
L 244.457851 237.338261 
L 247.532231 237.338261 
L 250.606612 237.338261 
L 253.680992 237.338261 
L 256.755372 237.338261 
L 259.829752 237.338261 
L 262.904132 237.338261 
L 265.978512 237.338261 
L 269.052893 237.338261 
L 272.127273 237.338261 
L 275.201653 237.338261 
L 278.276033 237.338261 
L 281.350413 237.338261 
L 284.424793 237.338261 
L 287.499174 237.338261 
L 290.573554 237.338261 
L 293.647934 237.338261 
L 296.722314 237.338261 
L 299.796694 237.338261 
L 302.871074 237.338261 
L 305.945455 237.338261 
L 309.019835 237.338261 
L 312.094215 237.338261 
L 315.168595 237.338261 
L 318.242975 237.338261 
L 321.317355 237.338261 
L 324.391736 237.338261 
L 327.466116 237.338261 
L 330.540496 237.338261 
L 333.614876 237.338261 
L 336.689256 237.338261 
L 339.763636 237.338261 
L 342.838017 237.338261 
L 345.912397 237.338261 
L 348.986777 237.338261 
L 352.061157 237.338261 
L 355.135537 237.338261 
L 358.209917 237.338261 
L 361.284298 237.338261 
L 364.358678 237.338261 
L 367.433058 237.338261 
L 370.507438 237.338261 
L 373.581818 237.338261 
" clip-path="url(#p561f22d9ef)" style="fill: none; stroke: #1f77b4; stroke-width: 1.5; stroke-linecap: square"/>
   </g>
   <g id="line2d_16">
    <path d="M 69.218182 242.116364 
L 72.292562 237.987836 
L 75.366942 235.545665 
L 78.441322 234.075798 
L 81.515702 233.178045 
L 84.590083 232.623502 
L 87.664463 232.278174 
L 90.738843 232.06193 
L 93.813223 231.926016 
L 96.887603 231.840383 
L 99.961983 231.786346 
L 103.036364 231.752212 
L 106.110744 231.730637 
L 109.185124 231.716994 
L 112.259504 231.708365 
L 115.333884 231.702907 
L 118.408264 231.699453 
L 121.482645 231.697268 
L 124.557025 231.695886 
L 127.631405 231.695011 
L 130.705785 231.694457 
L 133.780165 231.694107 
L 136.854545 231.693885 
L 139.928926 231.693745 
L 143.003306 231.693656 
L 146.077686 231.6936 
L 149.152066 231.693565 
L 152.226446 231.693542 
L 155.300826 231.693528 
L 158.375207 231.693519 
L 161.449587 231.693513 
L 164.523967 231.69351 
L 167.598347 231.693507 
L 170.672727 231.693506 
L 173.747107 231.693505 
L 176.821488 231.693505 
L 179.895868 231.693504 
L 182.970248 231.693504 
L 186.044628 231.693504 
L 189.119008 231.693504 
L 192.193388 231.693504 
L 195.267769 231.693504 
L 198.342149 231.693504 
L 201.416529 231.693504 
L 204.490909 231.693504 
L 207.565289 231.693504 
L 210.639669 231.693504 
L 213.71405 231.693504 
L 216.78843 231.693504 
L 219.86281 231.693504 
L 222.93719 231.693504 
L 226.01157 231.693504 
L 229.08595 231.693504 
L 232.160331 231.693504 
L 235.234711 231.693504 
L 238.309091 231.693504 
L 241.383471 231.693504 
L 244.457851 231.693504 
L 247.532231 231.693504 
L 250.606612 231.693504 
L 253.680992 231.693504 
L 256.755372 231.693504 
L 259.829752 231.693504 
L 262.904132 231.693504 
L 265.978512 231.693504 
L 269.052893 231.693504 
L 272.127273 231.693504 
L 275.201653 231.693504 
L 278.276033 231.693504 
L 281.350413 231.693504 
L 284.424793 231.693504 
L 287.499174 231.693504 
L 290.573554 231.693504 
L 293.647934 231.693504 
L 296.722314 231.693504 
L 299.796694 231.693504 
L 302.871074 231.693504 
L 305.945455 231.693504 
L 309.019835 231.693504 
L 312.094215 231.693504 
L 315.168595 231.693504 
L 318.242975 231.693504 
L 321.317355 231.693504 
L 324.391736 231.693504 
L 327.466116 231.693504 
L 330.540496 231.693504 
L 333.614876 231.693504 
L 336.689256 231.693504 
L 339.763636 231.693504 
L 342.838017 231.693504 
L 345.912397 231.693504 
L 348.986777 231.693504 
L 352.061157 231.693504 
L 355.135537 231.693504 
L 358.209917 231.693504 
L 361.284298 231.693504 
L 364.358678 231.693504 
L 367.433058 231.693504 
L 370.507438 231.693504 
L 373.581818 231.693504 
" clip-path="url(#p561f22d9ef)" style="fill: none; stroke: #ff7f0e; stroke-width: 1.5; stroke-linecap: square"/>
   </g>
   <g id="line2d_17">
    <path d="M 69.218182 242.116364 
L 72.292562 235.817404 
L 75.366942 232.033873 
L 78.441322 229.657027 
L 81.515702 228.081338 
L 84.590083 226.973553 
L 87.664463 226.145907 
L 90.738843 225.488203 
L 93.813223 224.931534 
L 96.887603 224.428106 
L 99.961983 223.938388 
L 103.036364 223.419319 
L 106.110744 222.804588 
L 109.185124 221.946351 
L 112.259504 220.339276 
L 115.333884 216.199301 
L 118.408264 209.543066 
L 121.482645 202.285927 
L 124.557025 195.030754 
L 127.631405 187.952888 
L 130.705785 181.116219 
L 133.780165 174.545345 
L 136.854545 168.247951 
L 139.928926 162.223478 
L 143.003306 156.467038 
L 146.077686 150.971379 
L 149.152066 145.72796 
L 152.226446 140.727565 
L 155.300826 135.960681 
L 158.375207 131.417728 
L 161.449587 127.089207 
L 164.523967 122.965793 
L 167.598347 119.038401 
L 170.672727 115.298218 
L 173.747107 111.736732 
L 176.821488 108.345741 
L 179.895868 105.11736 
L 182.970248 102.044021 
L 186.044628 99.118469 
L 189.119008 96.33376 
L 192.193388 93.683248 
L 195.267769 91.160583 
L 198.342149 88.759696 
L 201.416529 86.474793 
L 204.490909 84.300343 
L 207.565289 82.231069 
L 210.639669 80.261937 
L 213.71405 78.388149 
L 216.78843 76.605128 
L 219.86281 74.908513 
L 222.93719 73.294147 
L 226.01157 71.758071 
L 229.08595 70.296511 
L 232.160331 68.905873 
L 235.234711 67.582734 
L 238.309091 66.323834 
L 241.383471 65.126068 
L 244.457851 63.986481 
L 247.532231 62.902257 
L 250.606612 61.870716 
L 253.680992 60.889309 
L 256.755372 59.955605 
L 259.829752 59.067293 
L 262.904132 58.222173 
L 265.978512 57.418149 
L 269.052893 56.653228 
L 272.127273 55.925512 
L 275.201653 55.233198 
L 278.276033 54.574565 
L 281.350413 53.947978 
L 284.424793 53.351881 
L 287.499174 52.784793 
L 290.573554 52.245303 
L 293.647934 51.732072 
L 296.722314 51.243822 
L 299.796694 50.779339 
L 302.871074 50.337468 
L 305.945455 49.91711 
L 309.019835 49.517217 
L 312.094215 49.136795 
L 315.168595 48.774897 
L 318.242975 48.430622 
L 321.317355 48.103111 
L 324.391736 47.79155 
L 327.466116 47.495162 
L 330.540496 47.21321 
L 333.614876 46.94499 
L 336.689256 46.689833 
L 339.763636 46.447105 
L 342.838017 46.2162 
L 345.912397 45.996543 
L 348.986777 45.787586 
L 352.061157 45.588808 
L 355.135537 45.399713 
L 358.209917 45.21983 
L 361.284298 45.04871 
L 364.358678 44.885927 
L 367.433058 44.731075 
L 370.507438 44.583767 
L 373.581818 44.443636 
" clip-path="url(#p561f22d9ef)" style="fill: none; stroke: #2ca02c; stroke-width: 1.5; stroke-linecap: square"/>
   </g>
   <g id="patch_3">
    <path d="M 54 252 
L 54 34.56 
" style="fill: none; stroke: #000000; stroke-width: 0.8; stroke-linejoin: miter; stroke-linecap: square"/>
   </g>
   <g id="patch_4">
    <path d="M 388.8 252 
L 388.8 34.56 
" style="fill: none; stroke: #000000; stroke-width: 0.8; stroke-linejoin: miter; stroke-linecap: square"/>
   </g>
   <g id="patch_5">
    <path d="M 54 252 
L 388.8 252 
" style="fill: none; stroke: #000000; stroke-width: 0.8; stroke-linejoin: miter; stroke-linecap: square"/>
   </g>
   <g id="patch_6">
    <path d="M 54 34.56 
L 388.8 34.56 
" style="fill: none; stroke: #000000; stroke-width: 0.8; stroke-linejoin: miter; stroke-linecap: square"/>
   </g>
   <g id="text_17">
    <!-- MutualInhibition -->
    <g transform="translate(172.911563 28.56)scale(0.12 -0.12)">
     <defs>
      <path id="DejaVuSans-4d" d="M 628 4666 
L 1569 4666 
L 2759 1491 
L 3956 4666 
L 4897 4666 
L 4897 0 
L 4281 0 
L 4281 4097 
L 3078 897 
L 2444 897 
L 1241 4097 
L 1241 0 
L 628 0 
L 628 4666 
z
" transform="scale(0.015625)"/>
      <path id="DejaVuSans-75" d="M 544 1381 
L 544 3500 
L 1119 3500 
L 1119 1403 
Q 1119 906 1312 657 
Q 1506 409 1894 409 
Q 2359 409 2629 706 
Q 2900 1003 2900 1516 
L 2900 3500 
L 3475 3500 
L 3475 0 
L 2900 0 
L 2900 538 
Q 2691 219 2414 64 
Q 2138 -91 1772 -91 
Q 1169 -91 856 284 
Q 544 659 544 1381 
z
M 1991 3584 
L 1991 3584 
z
" transform="scale(0.015625)"/>
      <path id="DejaVuSans-61" d="M 2194 1759 
Q 1497 1759 1228 1600 
Q 959 1441 959 1056 
Q 959 750 1161 570 
Q 1363 391 1709 391 
Q 2188 391 2477 730 
Q 2766 1069 2766 1631 
L 2766 1759 
L 2194 1759 
z
M 3341 1997 
L 3341 0 
L 2766 0 
L 2766 531 
Q 2569 213 2275 61 
Q 1981 -91 1556 -91 
Q 1019 -91 701 211 
Q 384 513 384 1019 
Q 384 1609 779 1909 
Q 1175 2209 1959 2209 
L 2766 2209 
L 2766 2266 
Q 2766 2663 2505 2880 
Q 2244 3097 1772 3097 
Q 1472 3097 1187 3025 
Q 903 2953 641 2809 
L 641 3341 
Q 956 3463 1253 3523 
Q 1550 3584 1831 3584 
Q 2591 3584 2966 3190 
Q 3341 2797 3341 1997 
z
" transform="scale(0.015625)"/>
      <path id="DejaVuSans-6c" d="M 603 4863 
L 1178 4863 
L 1178 0 
L 603 0 
L 603 4863 
z
" transform="scale(0.015625)"/>
      <path id="DejaVuSans-49" d="M 628 4666 
L 1259 4666 
L 1259 0 
L 628 0 
L 628 4666 
z
" transform="scale(0.015625)"/>
      <path id="DejaVuSans-6e" d="M 3513 2113 
L 3513 0 
L 2938 0 
L 2938 2094 
Q 2938 2591 2744 2837 
Q 2550 3084 2163 3084 
Q 1697 3084 1428 2787 
Q 1159 2491 1159 1978 
L 1159 0 
L 581 0 
L 581 3500 
L 1159 3500 
L 1159 2956 
Q 1366 3272 1645 3428 
Q 1925 3584 2291 3584 
Q 2894 3584 3203 3211 
Q 3513 2838 3513 2113 
z
" transform="scale(0.015625)"/>
      <path id="DejaVuSans-68" d="M 3513 2113 
L 3513 0 
L 2938 0 
L 2938 2094 
Q 2938 2591 2744 2837 
Q 2550 3084 2163 3084 
Q 1697 3084 1428 2787 
Q 1159 2491 1159 1978 
L 1159 0 
L 581 0 
L 581 4863 
L 1159 4863 
L 1159 2956 
Q 1366 3272 1645 3428 
Q 1925 3584 2291 3584 
Q 2894 3584 3203 3211 
Q 3513 2838 3513 2113 
z
" transform="scale(0.015625)"/>
      <path id="DejaVuSans-69" d="M 603 3500 
L 1178 3500 
L 1178 0 
L 603 0 
L 603 3500 
z
M 603 4863 
L 1178 4863 
L 1178 4134 
L 603 4134 
L 603 4863 
z
" transform="scale(0.015625)"/>
      <path id="DejaVuSans-62" d="M 3116 1747 
Q 3116 2381 2855 2742 
Q 2594 3103 2138 3103 
Q 1681 3103 1420 2742 
Q 1159 2381 1159 1747 
Q 1159 1113 1420 752 
Q 1681 391 2138 391 
Q 2594 391 2855 752 
Q 3116 1113 3116 1747 
z
M 1159 2969 
Q 1341 3281 1617 3432 
Q 1894 3584 2278 3584 
Q 2916 3584 3314 3078 
Q 3713 2572 3713 1747 
Q 3713 922 3314 415 
Q 2916 -91 2278 -91 
Q 1894 -91 1617 61 
Q 1341 213 1159 525 
L 1159 0 
L 581 0 
L 581 4863 
L 1159 4863 
L 1159 2969 
z
" transform="scale(0.015625)"/>
      <path id="DejaVuSans-6f" d="M 1959 3097 
Q 1497 3097 1228 2736 
Q 959 2375 959 1747 
Q 959 1119 1226 758 
Q 1494 397 1959 397 
Q 2419 397 2687 759 
Q 2956 1122 2956 1747 
Q 2956 2369 2687 2733 
Q 2419 3097 1959 3097 
z
M 1959 3584 
Q 2709 3584 3137 3096 
Q 3566 2609 3566 1747 
Q 3566 888 3137 398 
Q 2709 -91 1959 -91 
Q 1206 -91 779 398 
Q 353 888 353 1747 
Q 353 2609 779 3096 
Q 1206 3584 1959 3584 
z
" transform="scale(0.015625)"/>
     </defs>
     <use xlink:href="#DejaVuSans-4d"/>
     <use xlink:href="#DejaVuSans-75" x="86.279297"/>
     <use xlink:href="#DejaVuSans-74" x="149.658203"/>
     <use xlink:href="#DejaVuSans-75" x="188.867188"/>
     <use xlink:href="#DejaVuSans-61" x="252.246094"/>
     <use xlink:href="#DejaVuSans-6c" x="313.525391"/>
     <use xlink:href="#DejaVuSans-49" x="341.308594"/>
     <use xlink:href="#DejaVuSans-6e" x="370.800781"/>
     <use xlink:href="#DejaVuSans-68" x="434.179688"/>
     <use xlink:href="#DejaVuSans-69" x="497.558594"/>
     <use xlink:href="#DejaVuSans-62" x="525.341797"/>
     <use xlink:href="#DejaVuSans-69" x="588.818359"/>
     <use xlink:href="#DejaVuSans-74" x="616.601562"/>
     <use xlink:href="#DejaVuSans-69" x="655.810547"/>
     <use xlink:href="#DejaVuSans-6f" x="683.59375"/>
     <use xlink:href="#DejaVuSans-6e" x="744.775391"/>
    </g>
   </g>
   <g id="legend_1">
    <g id="patch_7">
     <path d="M 61 86.594375 
L 129.9875 86.594375 
Q 131.9875 86.594375 131.9875 84.594375 
L 131.9875 41.56 
Q 131.9875 39.56 129.9875 39.56 
L 61 39.56 
Q 59 39.56 59 41.56 
L 59 84.594375 
Q 59 86.594375 61 86.594375 
z
" style="fill: #ffffff; opacity: 0.8; stroke: #cccccc; stroke-linejoin: miter"/>
    </g>
    <g id="line2d_18">
     <path d="M 63 47.658438 
L 73 47.658438 
L 83 47.658438 
" style="fill: none; stroke: #1f77b4; stroke-width: 1.5; stroke-linecap: square"/>
    </g>
    <g id="text_18">
     <!-- S = 1 -->
     <g transform="translate(91 51.158438)scale(0.1 -0.1)">
      <defs>
       <path id="DejaVuSans-53" d="M 3425 4513 
L 3425 3897 
Q 3066 4069 2747 4153 
Q 2428 4238 2131 4238 
Q 1616 4238 1336 4038 
Q 1056 3838 1056 3469 
Q 1056 3159 1242 3001 
Q 1428 2844 1947 2747 
L 2328 2669 
Q 3034 2534 3370 2195 
Q 3706 1856 3706 1288 
Q 3706 609 3251 259 
Q 2797 -91 1919 -91 
Q 1588 -91 1214 -16 
Q 841 59 441 206 
L 441 856 
Q 825 641 1194 531 
Q 1563 422 1919 422 
Q 2459 422 2753 634 
Q 3047 847 3047 1241 
Q 3047 1584 2836 1778 
Q 2625 1972 2144 2069 
L 1759 2144 
Q 1053 2284 737 2584 
Q 422 2884 422 3419 
Q 422 4038 858 4394 
Q 1294 4750 2059 4750 
Q 2388 4750 2728 4690 
Q 3069 4631 3425 4513 
z
" transform="scale(0.015625)"/>
       <path id="DejaVuSans-20" transform="scale(0.015625)"/>
       <path id="DejaVuSans-3d" d="M 678 2906 
L 4684 2906 
L 4684 2381 
L 678 2381 
L 678 2906 
z
M 678 1631 
L 4684 1631 
L 4684 1100 
L 678 1100 
L 678 1631 
z
" transform="scale(0.015625)"/>
      </defs>
      <use xlink:href="#DejaVuSans-53"/>
      <use xlink:href="#DejaVuSans-20" x="63.476562"/>
      <use xlink:href="#DejaVuSans-3d" x="95.263672"/>
      <use xlink:href="#DejaVuSans-20" x="179.052734"/>
      <use xlink:href="#DejaVuSans-31" x="210.839844"/>
     </g>
    </g>
    <g id="line2d_19">
     <path d="M 63 62.336563 
L 73 62.336563 
L 83 62.336563 
" style="fill: none; stroke: #ff7f0e; stroke-width: 1.5; stroke-linecap: square"/>
    </g>
    <g id="text_19">
     <!-- S = 1.5 -->
     <g transform="translate(91 65.836563)scale(0.1 -0.1)">
      <defs>
       <path id="DejaVuSans-2e" d="M 684 794 
L 1344 794 
L 1344 0 
L 684 0 
L 684 794 
z
" transform="scale(0.015625)"/>
      </defs>
      <use xlink:href="#DejaVuSans-53"/>
      <use xlink:href="#DejaVuSans-20" x="63.476562"/>
      <use xlink:href="#DejaVuSans-3d" x="95.263672"/>
      <use xlink:href="#DejaVuSans-20" x="179.052734"/>
      <use xlink:href="#DejaVuSans-31" x="210.839844"/>
      <use xlink:href="#DejaVuSans-2e" x="274.462891"/>
      <use xlink:href="#DejaVuSans-35" x="306.25"/>
     </g>
    </g>
    <g id="line2d_20">
     <path d="M 63 77.014688 
L 73 77.014688 
L 83 77.014688 
" style="fill: none; stroke: #2ca02c; stroke-width: 1.5; stroke-linecap: square"/>
    </g>
    <g id="text_20">
     <!-- S = 2 -->
     <g transform="translate(91 80.514688)scale(0.1 -0.1)">
      <use xlink:href="#DejaVuSans-53"/>
      <use xlink:href="#DejaVuSans-20" x="63.476562"/>
      <use xlink:href="#DejaVuSans-3d" x="95.263672"/>
      <use xlink:href="#DejaVuSans-20" x="179.052734"/>
      <use xlink:href="#DejaVuSans-32" x="210.839844"/>
     </g>
    </g>
   </g>
  </g>
 </g>
 <defs>
  <clipPath id="p561f22d9ef">
   <rect x="54" y="34.56" width="334.8" height="217.44"/>
  </clipPath>
 </defs>
</svg>
